<mxfile host="app.diagrams.net" modified="2024-09-23T10:02:13.034Z" agent="Mozilla/5.0 (Windows NT 10.0; Win64; x64) AppleWebKit/537.36 (KHTML, like Gecko) Chrome/128.0.0.0 Safari/537.36" version="24.5.3" etag="xrWnAqDgBvTmsNofIxmM" type="github">
  <diagram name="Trang-1" id="6u1yU4UuuzKr_179PywW">
    <mxGraphModel>
      <root>
        <mxCell id="0" />
        <mxCell id="1" parent="0" />
      </root>
    </mxGraphModel>
  </diagram>
</mxfile>
